<?xml version="1.0" encoding="UTF-8" standalone="no"?>
<!-- Created with Inkscape (http://www.inkscape.org/) -->

<svg
   xmlns:dc="http://purl.org/dc/elements/1.1/"
   xmlns:cc="http://creativecommons.org/ns#"
   xmlns:rdf="http://www.w3.org/1999/02/22-rdf-syntax-ns#"
   xmlns:svg="http://www.w3.org/2000/svg"
   xmlns="http://www.w3.org/2000/svg"
   xmlns:sodipodi="http://sodipodi.sourceforge.net/DTD/sodipodi-0.dtd"
   xmlns:inkscape="http://www.inkscape.org/namespaces/inkscape"
   width="210mm"
   height="297mm"
   viewBox="0 0 210 297"
   version="1.1"
   id="svg8"
   inkscape:version="0.92.1 r15371"
   sodipodi:docname="gui.svg">
  <defs
     id="defs2" />
  <sodipodi:namedview
     id="base"
     pagecolor="#ffffff"
     bordercolor="#666666"
     borderopacity="1.0"
     inkscape:pageopacity="0.0"
     inkscape:pageshadow="2"
     inkscape:zoom="0.49497475"
     inkscape:cx="-14.556404"
     inkscape:cy="884.81755"
     inkscape:document-units="mm"
     inkscape:current-layer="layer1"
     showgrid="false"
     inkscape:snap-bbox="true"
     inkscape:snap-bbox-midpoints="true"
     inkscape:snap-bbox-edge-midpoints="true"
     inkscape:bbox-nodes="true"
     inkscape:window-width="1920"
     inkscape:window-height="1017"
     inkscape:window-x="-8"
     inkscape:window-y="-8"
     inkscape:window-maximized="1" />
  <metadata
     id="metadata5">
    <rdf:RDF>
      <cc:Work
         rdf:about="">
        <dc:format>image/svg+xml</dc:format>
        <dc:type
           rdf:resource="http://purl.org/dc/dcmitype/StillImage" />
        <dc:title />
      </cc:Work>
    </rdf:RDF>
  </metadata>
  <g
     inkscape:label="Layer 1"
     inkscape:groupmode="layer"
     id="layer1">
    <path
       style="opacity:1;fill:#000000;fill-opacity:1;stroke:none;stroke-width:0.3033075;stroke-linecap:round;stroke-linejoin:round;stroke-miterlimit:4;stroke-dasharray:none;stroke-opacity:1;paint-order:normal"
       d="M 186.42773 75.558594 L 61.251953 155.73438 L 186.42773 235.91016 L 186.42773 191.80469 L 422.14258 191.80469 L 422.14258 119.66211 L 186.42773 119.66211 L 186.42773 75.558594 z "
       transform="scale(0.26458333)"
       id="rect4485" />
    <path
       style="opacity:1;fill:#000000;fill-opacity:1;stroke:none;stroke-width:0.3033075;stroke-linecap:round;stroke-linejoin:round;stroke-miterlimit:4;stroke-dasharray:none;stroke-opacity:1;paint-order:normal"
       d="M 296.9668 235.91016 L 296.9668 280.01562 L 61.251953 280.01562 L 61.251953 352.1582 L 296.9668 352.1582 L 296.9668 396.26172 L 422.14258 316.08594 L 296.9668 235.91016 z "
       transform="scale(0.26458333)"
       id="rect4497" />
    <path
       style="opacity:1;fill:#000000;fill-opacity:1;stroke:none;stroke-width:0.35883147;stroke-linecap:round;stroke-linejoin:round;stroke-miterlimit:4;stroke-dasharray:none;stroke-opacity:1;paint-order:normal"
       d="M 280.41016 396.26172 A 141.73228 141.73228 0 0 0 192.30273 427.16016 L 215.20508 450.0625 A 109.58943 109.58943 0 0 1 280.41016 428.4043 A 109.58943 109.58943 0 0 1 345.60742 450.06641 L 368.61328 427.06055 A 141.73228 141.73228 0 0 0 280.41016 396.26172 z M 169.47656 449.79102 A 141.73228 141.73228 0 0 0 138.67773 537.99414 A 141.73228 141.73228 0 0 0 169.57422 626.09961 L 192.47656 603.19727 A 109.58943 109.58943 0 0 1 170.82031 537.99414 A 109.58943 109.58943 0 0 1 192.48242 472.79688 L 169.47656 449.79102 z M 391.24609 449.88867 L 368.34375 472.79102 A 109.58943 109.58943 0 0 1 390 537.99414 A 109.58943 109.58943 0 0 1 368.33594 603.19336 L 391.3418 626.19922 A 141.73228 141.73228 0 0 0 422.14258 537.99414 A 141.73228 141.73228 0 0 0 391.24609 449.88867 z M 280.41016 509.64844 A 28.346457 28.346457 0 0 0 252.06445 537.99414 A 28.346457 28.346457 0 0 0 280.41016 566.33984 A 28.346457 28.346457 0 0 0 308.75781 537.99414 A 28.346457 28.346457 0 0 0 280.41016 509.64844 z M 215.21289 625.92188 L 192.20703 648.92773 A 141.73228 141.73228 0 0 0 280.41016 679.72656 A 141.73228 141.73228 0 0 0 368.51562 648.83008 L 345.61328 625.92773 A 109.58943 109.58943 0 0 1 280.41016 647.58398 A 109.58943 109.58943 0 0 1 215.21289 625.92188 z "
       transform="scale(0.26458333)"
       id="path4503" />
    <g
       id="g4610"
       transform="translate(-21.85603,-12.755811)">
      <path
         id="path4533"
         transform="scale(0.26458333)"
         d="m 327.59961,727.9375 c -40.72869,0.068 -79.45977,17.65398 -106.31641,48.27344 l 19.67188,11.35937 c 22.5265,-23.828 53.85408,-37.35347 86.64453,-37.4082 32.73684,0.0248 64.02505,13.47969 86.56445,37.21289 l -17.07226,9.85742 52.0039,26.91016 2.69727,-58.49219 -17.9668,10.37305 C 406.95755,745.49996 368.27098,727.98283 327.59961,727.9375 Z"
         style="opacity:1;fill:#000000;fill-opacity:1;stroke:none;stroke-width:0.18749994;stroke-linecap:round;stroke-linejoin:round;stroke-miterlimit:4;stroke-dasharray:none;stroke-opacity:1;paint-order:normal"
         inkscape:connector-curvature="0" />
      <rect
         y="219.3773"
         x="101.32763"
         height="4.1426773"
         width="28.103031"
         id="rect4606"
         style="opacity:1;fill:#000000;fill-opacity:1;stroke:none;stroke-width:0.04189189;stroke-linecap:round;stroke-linejoin:round;stroke-miterlimit:4;stroke-dasharray:none;stroke-opacity:1;paint-order:normal" />
    </g>
    <path
       style="opacity:1;fill:#000000;fill-opacity:1;stroke:none;stroke-width:0.08025011;stroke-linecap:round;stroke-linejoin:round;stroke-miterlimit:4;stroke-dasharray:none;stroke-opacity:1;paint-order:normal"
       d="m 132.90506,33.958909 -21.21317,33.119425 h 11.66957 v 23.798548 h 19.08772 V 67.078334 h 11.66906 z"
       id="path4514"
       inkscape:connector-curvature="0" />
  </g>
</svg>
